<?xml version="1.0" standalone="no"?><!DOCTYPE svg PUBLIC "-//W3C//DTD SVG 1.1//EN" "http://www.w3.org/Graphics/SVG/1.1/DTD/svg11.dtd"><svg t="1742521271968" class="icon" viewBox="0 0 1024 1024" version="1.1" xmlns="http://www.w3.org/2000/svg" p-id="36534" xmlns:xlink="http://www.w3.org/1999/xlink" width="200" height="200"><path d="M126.848 1017.42592l-16.66048-16.66048L934.87104 176.08192l16.66048 16.66048zM665.02144 289.47456q-20.93568 17.09056-62.61248 81.02912-71.02464 98.14528-116.87936 132.1984 19.33312 11.008 49.7408 42.34752l-99.84 99.84q-15.75936-17.05984-33.37728-35.57888-45.98272-42.57792-75.136-38.4v182.4768l-133.12 133.12H76.46208v-42.6496h20.86912q83.456 4.3008 79.3088-81.024V332.11904q4.096-85.25824-83.456-81.02912h-16.72192v-42.64448h350.63296v42.64448H406.2208q-87.6544-4.1984-79.3088 85.29408v196.16768q66.72384-8.49408 141.92128-81.024Q564.80768 336.384 569.01632 285.184q0-34.08384-62.61248-34.11456h-12.52352v-42.624h288.01536v42.64448a740.864 740.864 0 0 0-75.13088 8.52992 127.488 127.488 0 0 0-41.74336 29.85472z" p-id="36535"></path></svg>